HIERARCHY
ROOT root
{
	OFFSET 0.00 0.00 0.00
	CHANNELS 6 Xposition Yposition Zposition Zrotation Xrotation Yrotation
	JOINT lowerback
	{
		OFFSET 0 0 0
		CHANNELS 6 Xposition Yposition Zposition Zrotation Xrotation Yrotation
		JOINT upperback
		{
			OFFSET -0.214371 12.3768 -1.12219
			CHANNELS 6 Xposition Yposition Zposition Zrotation Xrotation Yrotation
			JOINT thorax
			{
				OFFSET -0.00137213 12.3873 0.296195
				CHANNELS 6 Xposition Yposition Zposition Zrotation Xrotation Yrotation
				JOINT lowerneck
				{
					OFFSET 0.0883157 12.5016 0.82912
					CHANNELS 6 Xposition Yposition Zposition Zrotation Xrotation Yrotation
					JOINT upperneck
					{
						OFFSET -1 10.1794 0.943522
						CHANNELS 6 Xposition Yposition Zposition Zrotation Xrotation Yrotation
						JOINT head
						{
							OFFSET 0.667525 10.2797 -1.57149
							CHANNELS 6 Xposition Yposition Zposition Zrotation Xrotation Yrotation
							End Site
							{
								OFFSET 0 0 0
							}
						}
					}
				}
				JOINT lclavicle
				{
					OFFSET 0.0883157 12.5016 0.82912
					CHANNELS 6 Xposition Yposition Zposition Zrotation Xrotation Yrotation
					JOINT lhumerus
					{
						OFFSET 20.61 4.45006 1.43784
						CHANNELS 6 Xposition Yposition Zposition Zrotation Xrotation Yrotation
						JOINT lradius
						{
							OFFSET 0 -30.3438 0
							CHANNELS 6 Xposition Yposition Zposition Zrotation Xrotation Yrotation
							JOINT lwrist
							{
								OFFSET 0 -18.964 0
								CHANNELS 6 Xposition Yposition Zposition Zrotation Xrotation Yrotation
								JOINT lhand
								{
									OFFSET 0 -9.48199 0
									CHANNELS 6 Xposition Yposition Zposition Zrotation Xrotation Yrotation
									JOINT lfingers
									{
										OFFSET 0 -3.17138 0
										CHANNELS 6 Xposition Yposition Zposition Zrotation Xrotation Yrotation
										End Site
										{
											OFFSET 0 -2.55685 0
										}
									}
								}
								JOINT lthumb
								{
									OFFSET 0 -9.48199 0
									CHANNELS 6 Xposition Yposition Zposition Zrotation Xrotation Yrotation
									End Site
									{
										OFFSET 0 -3.67114 0
									}
								}
							}
						}
					}
				}
				JOINT rclavicle
				{
					OFFSET 0.0883157 12.5016 0.82912
					CHANNELS 6 Xposition Yposition Zposition Zrotation Xrotation Yrotation
					JOINT rhumerus
					{
						OFFSET -20.61 4.45 1.44
						CHANNELS 6 Xposition Yposition Zposition Zrotation Xrotation Yrotation
						JOINT rradius
						{
							OFFSET 0 -29.5102 0
							CHANNELS 6 Xposition Yposition Zposition Zrotation Xrotation Yrotation
							JOINT rwrist
							{
								OFFSET 0 -19.2342 0
								CHANNELS 6 Xposition Yposition Zposition Zrotation Xrotation Yrotation
								JOINT rhand
								{
									OFFSET 0 -9.61712 0
									CHANNELS 6 Xposition Yposition Zposition Zrotation Xrotation Yrotation
									JOINT rfingers
									{
										OFFSET 0 -3.29215 0
										CHANNELS 6 Xposition Yposition Zposition Zrotation Xrotation Yrotation
										End Site
										{
											OFFSET 0 -2.557 0
										}
									}
								}
								JOINT rthumb
								{
									OFFSET 0 -9.61712 0
									CHANNELS 6 Xposition Yposition Zposition Zrotation Xrotation Yrotation
									End Site
									{
										OFFSET 0 -3.671 0
									}
								}
							}
						}
					}
				}
			}
		}
	}
	JOINT rfemur
	{
		OFFSET -8.46272 -9.62775 4.76248
		CHANNELS 6 Xposition Yposition Zposition Zrotation Xrotation Yrotation
		JOINT rtibia
		{
			OFFSET 1.00552e-005 -38.0331 0
			CHANNELS 6 Xposition Yposition Zposition Zrotation Xrotation Yrotation
			JOINT rfoot
			{
				OFFSET 1.14428e-005 -43.2815 0
				CHANNELS 6 Xposition Yposition Zposition Zrotation Xrotation Yrotation
				JOINT rtoes
				{
					OFFSET 0 -14.1868 -3.08763
					CHANNELS 6 Xposition Yposition Zposition Zrotation Xrotation Yrotation
					End Site
					{
						OFFSET 0 -7.27332 0
					}
				}
			}
		}
	}
	JOINT lfemur
	{
		OFFSET 9.10607 -9.62778 4.76249
		CHANNELS 6 Xposition Yposition Zposition Zrotation Xrotation Yrotation
		JOINT ltibia
		{
			OFFSET -1.01399e-005 -38.3535 0
			CHANNELS 6 Xposition Yposition Zposition Zrotation Xrotation Yrotation
			JOINT lfoot
			{
				OFFSET -1.12937e-005 -42.7176 0
				CHANNELS 6 Xposition Yposition Zposition Zrotation Xrotation Yrotation
				JOINT ltoes
				{
					OFFSET 0 -13.9965 -2.83857
					CHANNELS 6 Xposition Yposition Zposition Zrotation Xrotation Yrotation
					End Site
					{
						OFFSET 0 -7.16348 0
					}
				}
			}
		}
	}
}
MOTION
Frames: 5
Frame Time: 0.00833333
-0.960544	95.5447	211.711	2.82843	-2.45871	6.72899	0 0 0 -1.83594	6.28194	-3.39815	-0.214371 12.3768 -1.12219 0.721149	-4.20802	-4.63411	-0.00137213 12.3873 0.296195 2.69755	0.208058	-2.03581	0.0883157 12.5016 0.82912 3.63784	-4.82431	1.62434	-1 10.1794 0.943522 -6.57497	11.9369	3.10089	0.667525 10.2797 -1.57149 -0.0551168	2.6052	1.61308	0.0883157 12.5016 0.82912 -15	0	-0	20.61 4.45006 1.43784 17.6745	-1.15383	172.881	0 -30.3438 0 -0	82.7315	-0	0 -18.964 0 -0	0	-88.6853	0 -9.48199 0 1.22245	4.37968	-2.58917e-014	0 -3.17138 0 -0	7.12502	-0	0 -9.48199 0 25	15	-1.36605e-015	0.0883157 12.5016 0.82912 15	0	-0	-20.61 4.45 1.44 -8.30852	24.5255	156.585	0 -29.5102 0 -0	9.49059	-0	0 -19.2342 0 1.50107e-015	-4.33727e-015	128.18	0 -9.61712 0 1.22	4.38	-0	0 -3.29215 0 -0	7.12502	-0	0 -9.61712 0 25	15	-7.97034e-015	-8.46272 -9.62775 4.76248 1.61564	-31.5818	9.26762	1.00552e-005 -38.0331 0 -0	34.6888	-0	1.14428e-005 -43.2815 0 -2.20354e-016	-76.5803	-2.26742e-016	0 -14.1868 -3.08763 -0	-37.5514	-0	9.10607 -9.62778 4.76249 -3.32149	23.9617	-4.24226	-1.01399e-005 -38.3535 0 -0	22.3433	-0	-1.12937e-005 -42.7176 0 4.23052e-015	-64.6744	5.05871e-015	0 -13.9965 -2.83857 -0	-49.8225	-0
-1.06416	95.5144	213.368	2.47675	-2.56745	6.39084	0 0 0 -1.54093	6.15819	-3.39239	-0.214371 12.3768 -1.12219 0.858323	-4.24266	-4.60111	-0.00137213 12.3873 0.296195 2.66126	0.221885	-2.04536	0.0883157 12.5016 0.82912 3.72518	-4.84796	1.66946	-1 10.1794 0.943522 -6.74705	12.1606	3.20015	0.667525 10.2797 -1.57149 -0.196275	2.7419	1.69321	0.0883157 12.5016 0.82912 -15	0	-0	20.61 4.45006 1.43784 17.5191	-0.562399	173.103	0 -30.3438 0 -0	82.7977	-0	0 -18.964 0 -0	0	-88.7724	0 -9.48199 0 1.22245	4.37968	-2.58917e-014	0 -3.17138 0 -0	7.12502	-0	0 -9.48199 0 25	15	-1.36605e-015	0.0883157 12.5016 0.82912 15	0	-0	-20.61 4.45 1.44 -8.393	24.1876	155.253	0 -29.5102 0 -0	9.00932	-0	0 -19.2342 0 1.57675e-015	-4.43182e-015	129.169	0 -9.61712 0 1.22	4.38	-0	0 -3.29215 0 -0	7.12502	-0	0 -9.61712 0 25	15	-7.97034e-015	-8.46272 -9.62775 4.76248 2.53616	-31.3301	9.56721	1.00552e-005 -38.0331 0 -0	36.1585	-0	1.14428e-005 -43.2815 0 -2.09399e-016	-75.9062	-2.16101e-016	0 -14.1868 -3.08763 -0	-36.4664	-0	9.10607 -9.62778 4.76249 -2.87591	23.7144	-3.82421	-1.01399e-005 -38.3535 0 -0	24.4561	-0	-1.12937e-005 -42.7176 0 3.83323e-015	-62.6034	4.70267e-015	0 -13.9965 -2.83857 -0	-49.8953	-0
-1.16723	95.4639	214.969	2.09858	-2.70843	6.04933	0 0 0 -1.20795	6.09612	-3.38311	-0.214371 12.3768 -1.12219 1.00051	-4.24907	-4.56111	-0.00137213 12.3873 0.296195 2.61078	0.232014	-2.05042	0.0883157 12.5016 0.82912 3.81959	-4.86801	1.71178	-1 10.1794 0.943522 -6.91508	12.3628	3.30215	0.667525 10.2797 -1.57149 -0.334931	2.87531	1.76655	0.0883157 12.5016 0.82912 -15	0	-0	20.61 4.45006 1.43784 17.358	0.0556654	173.323	0 -30.3438 0 -0	82.72	-0	0 -18.964 0 -0	0	-88.942	0 -9.48199 0 1.22245	4.37968	-2.58917e-014	0 -3.17138 0 -0	7.12502	-0	0 -9.48199 0 25	15	-1.36605e-015	0.0883157 12.5016 0.82912 15	0	-0	-20.61 4.45 1.44 -8.47426	23.7345	154.006	0 -29.5102 0 -0	8.62144	-0	0 -19.2342 0 1.64199e-015	-4.51072e-015	130.005	0 -9.61712 0 1.22	4.38	-0	0 -3.29215 0 -0	7.12502	-0	0 -9.61712 0 25	15	-7.97034e-015	-8.46272 -9.62775 4.76248 3.43462	-30.9884	9.76978	1.00552e-005 -38.0331 0 -0	37.5397	-0	1.14428e-005 -43.2815 0 -2.03675e-016	-75.5269	-2.10554e-016	0 -14.1868 -3.08763 -0	-35.2411	-0	9.10607 -9.62778 4.76249 -2.40402	23.2497	-3.41995	-1.01399e-005 -38.3535 0 -0	26.9095	-0	-1.12937e-005 -42.7176 0 3.4388e-015	-60.2156	4.35626e-015	0 -13.9965 -2.83857 -0	-49.8294	-0
-1.27465	95.3686	216.501	1.68876	-2.87741	5.68059	0 0 0 -0.837536	6.07816	-3.36801	-0.214371 12.3768 -1.12219 1.14917	-4.23378	-4.51117	-0.00137213 12.3873 0.296195 2.54625	0.23864	-2.05093	0.0883157 12.5016 0.82912 3.91613	-4.88336	1.75087	-1 10.1794 0.943522 -7.07895	12.5405	3.40209	0.667525 10.2797 -1.57149 -0.476058	3.01223	1.83826	0.0883157 12.5016 0.82912 -15	0	-0	20.61 4.45006 1.43784 17.1928	0.712121	173.537	0 -30.3438 0 -0	82.5063	-0	0 -18.964 0 -0	0	-89.2134	0 -9.48199 0 1.22245	4.37968	-2.58917e-014	0 -3.17138 0 -0	7.12502	-0	0 -9.48199 0 25	15	-1.36605e-015	0.0883157 12.5016 0.82912 15	0	-0	-20.61 4.45 1.44 -8.57581	23.1707	152.796	0 -29.5102 0 -0	8.29282	-0	0 -19.2342 0 1.70078e-015	-4.57985e-015	130.746	0 -9.61712 0 1.22	4.38	-0	0 -3.29215 0 -0	7.12502	-0	0 -9.61712 0 25	15	-7.97034e-015	-8.46272 -9.62775 4.76248 4.3507	-30.5819	9.92061	1.00552e-005 -38.0331 0 -0	38.9235	-0	1.14428e-005 -43.2815 0 -2.01021e-016	-75.3442	-2.07985e-016	0 -14.1868 -3.08763 -0	-33.8498	-0	9.10607 -9.62778 4.76249 -1.89946	22.5954	-3.00524	-1.01399e-005 -38.3535 0 -0	29.6831	-0	-1.12937e-005 -42.7176 0 3.05265e-015	-57.4845	4.02569e-015	0 -13.9965 -2.83857 -0	-49.6415	-0
-1.38464	95.2529	217.985	1.26685	-3.06225	5.31953	0 0 0 -0.445718	6.09974	-3.34956	-0.214371 12.3768 -1.12219 1.29763	-4.20244	-4.45531	-0.00137213 12.3873 0.296195 2.47059	0.242087	-2.04678	0.0883157 12.5016 0.82912 4.00944	-4.89411	1.78696	-1 10.1794 0.943522 -7.2395	12.6927	3.49406	0.667525 10.2797 -1.57149 -0.614599	3.14109	1.90174	0.0883157 12.5016 0.82912 -15	0	-0	20.61 4.45006 1.43784 17.0148	1.40533	173.756	0 -30.3438 0 -0	82.1693	-0	0 -18.964 0 -0	0	-89.5538	0 -9.48199 0 1.22245	4.37968	-2.58917e-014	0 -3.17138 0 -0	7.12502	-0	0 -9.48199 0 25	15	-1.36605e-015	0.0883157 12.5016 0.82912 15	0	-0	-20.61 4.45 1.44 -8.69502	22.5281	151.696	0 -29.5102 0 -0	8.05424	-0	0 -19.2342 0 1.74806e-015	-4.63417e-015	131.334	0 -9.61712 0 1.22	4.38	-0	0 -3.29215 0 -0	7.12502	-0	0 -9.61712 0 25	15	-7.97034e-015	-8.46272 -9.62775 4.76248 5.23049	-30.0971	9.99643	1.00552e-005 -38.0331 0 -0	40.2276	-0	1.14428e-005 -43.2815 0 -2.00972e-016	-75.3408	-2.07938e-016	0 -14.1868 -3.08763 -0	-32.3922	-0	9.10607 -9.62778 4.76249 -1.38293	21.7579	-2.605	-1.01399e-005 -38.3535 0 -0	32.6828	-0	-1.12937e-005 -42.7176 0 2.71114e-015	-54.6728	3.74222e-015	0 -13.9965 -2.83857 -0	-49.3285	-0
